<?xml version="1.0" encoding="utf-8"?>
<!-- Generator: Adobe Illustrator 17.0.0, SVG Export Plug-In . SVG Version: 6.00 Build 0)  -->
<!DOCTYPE svg PUBLIC "-//W3C//DTD SVG 1.1//EN" "http://www.w3.org/Graphics/SVG/1.1/DTD/svg11.dtd">
<svg version="1.1" id="icon" xmlns="http://www.w3.org/2000/svg" xmlns:xlink="http://www.w3.org/1999/xlink" x="0px" y="0px"
	 width="192px" height="192px" viewBox="0 0 192 192" enable-background="new 0 0 192 192" xml:space="preserve">
<path id="sun" fill="#FFD600" d="M149.695,94.425c0.604-0.075,1.133-0.075,1.737-0.075c1.057,0,2.039,0.075,3.096,0.225
	c1.812-4.125,2.87-8.625,2.87-13.425c0-18.3-14.953-33.15-33.38-33.15c-10.12,0-19.107,4.425-25.3,11.475
	c8.609,2.7,15.859,8.4,20.617,15.9c1.661-0.375,3.474-0.525,5.211-0.525C136.706,74.85,146.901,83.175,149.695,94.425z"/>
<path id="cloud" fill="#FFFFFF" d="M168.5,123c0-5.925-2.115-12.075-6.57-16.05c-4.833-4.275-11.479-6-17.823-4.95
	c-0.227-6.6-3.625-12.9-8.987-16.8c-5.966-4.35-13.971-5.325-20.919-2.625c-2.719-6.45-7.703-11.925-13.971-15.15
	c-6.344-3.375-13.82-4.35-20.844-2.775C66.018,67.575,56.049,79.5,55.521,93.075C48.346,91.5,40.719,93,34.753,97.275
	C29.315,101.1,23.5,107.325,23.5,120c0,19.575,18.125,24,24.167,24c4.833,0,90.096-0.075,102.708,0S168.5,134.025,168.5,123z"/>
</svg>
